#!OML:ASF H:\IndianDance\Patient Classification 1\Patient 1\Session 1\dancer.ASF
:FULLY-SPECIFIED
:DEGREES
2297
root -10.7023 14.107 -7.24453 -164.123 10.8641 -183.967
lowerback 20.0654 0.966365 12.4714
upperback -5.65471 8.40121 10.7488
thorax -17.7976 3.79615 2.01989
lowerneck -15.87 -16.7589 -12.5826
upperneck -13.2889 -18.4387 24.425
head 2.34249 -8.05577 7.83114
rclavicle -1.59028e-014 -5.08889e-014
rhumerus 46.23 -53.9506 -59.0345
rradius 26.7057
rwrist -73.826
rhand -26.8115 -20.1182
rfingers 7.12502
rthumb -0.237994 -50.0978
lclavicle -1.59028e-014 -5.08889e-014
lhumerus -14.1072 -66.9948 23.6304
lradius 118.446
lwrist -0.309022
lhand -61.0246 318.783
lfingers 7.12502
lthumb -33.1267 -14.2433
rfemur -226.314 181.341 171.006
rtibia 21.1525
rfoot -68.181 -387.394
rtoes 45.8926
lfemur -49.6819 15.215 -39.2107
ltibia 68.5322
lfoot -24.6106 8.38812
ltoes 0.30324
2298
root -10.6902 14.0858 -7.22178 -163.88 10.7628 -183.763
lowerback 20.0722 0.979836 12.5583
upperback -5.50089 8.44001 10.8174
thorax -17.6117 3.82712 2.03731
lowerneck -15.594 -16.7006 -12.5032
upperneck -13.0049 -18.4888 24.5233
head 2.40141 -8.10857 7.84426
rclavicle 2.94201e-014 1.01778e-013
rhumerus 44.4867 -53.6193 -59.6427
rradius 26.3847
rwrist -73.2923
rhand -27.3389 -21.0489
rfingers 7.12502
rthumb -0.747423 -51.0274
lclavicle 2.94201e-014 1.01778e-013
lhumerus -12.4116 -66.8943 22.0934
lradius 118.41
lwrist -0.328891
lhand -60.9689 318.872
lfingers 7.12502
lthumb -33.0737 -14.1433
rfemur -226.689 181.979 171.618
rtibia 21.2796
rfoot -68.9054 -387.434
rtoes 46.0459
lfemur -50.5809 14.5239 -38.4345
ltibia 69.3916
lfoot -24.4037 8.02416
ltoes -0.550274
2299
root -10.6811 14.0613 -7.19767 -163.693 10.7177 -183.597
lowerback 20.0958 1.00788 12.5601
upperback -5.3308 8.46074 10.8662
thorax -17.4228 3.85419 2.08317
lowerneck -15.3418 -16.633 -12.3949
upperneck -12.6339 -18.5464 24.5906
head 2.48295 -8.1626 7.8386
rclavicle -2.38542e-014 1.90833e-014
rhumerus 42.7866 -53.1397 -60.2913
rradius 26.0703
rwrist -72.7323
rhand -27.9003 -22.0225
rfingers 7.12502
rthumb -1.28958 -51.9984
lclavicle -2.38542e-014 1.90833e-014
lhumerus -10.8645 -66.7673 20.6766
lradius 118.368
lwrist -0.399726
lhand -60.9036 318.955
lfingers 7.12502
lthumb -33.0116 -14.0471
rfemur -227.11 182.578 172.175
rtibia 21.4817
rfoot -69.4929 -387.496
rtoes 46.144
lfemur -51.2902 13.8937 -37.7354
ltibia 69.9193
lfoot -24.47 7.78441
ltoes -1.29677
2300
root -10.6758 14.0357 -7.1722 -163.574 10.7394 -183.479
lowerback 20.1425 1.05052 12.4663
upperback -5.14197 8.46315 10.9002
thorax -17.2341 3.87833 2.16792
lowerneck -15.1119 -16.5585 -12.277
upperneck -12.1839 -18.61 24.639
head 2.58792 -8.21601 7.8213
rclavicle -6.67916e-014 -1.52667e-013
rhumerus 41.2218 -52.5254 -61.0606
rradius 25.7367
rwrist -72.0503
rhand -28.5513 -23.0769
rfingers 7.12502
rthumb -1.91831 -53.048
lclavicle -6.67916e-014 -1.52667e-013
lhumerus -9.51285 -66.624 19.4333
lradius 118.32
lwrist -0.504143
lhand -60.8474 319.018
lfingers 7.12502
lthumb -32.9582 -13.9726
rfemur -227.546 183.126 172.672
rtibia 21.7204
rfoot -69.8704 -387.669
rtoes 46.1058
lfemur -51.7542 13.3586 -37.1655
ltibia 70.0879
lfoot -24.7939 7.71654
ltoes -1.907
2301
root -10.6752 14.0108 -7.14523 -163.523 10.8358 -183.407
lowerback 20.2163 1.10644 12.2803
upperback -4.93437 8.44895 10.9222
thorax -17.0483 3.89983 2.29199
lowerneck -14.9216 -16.4845 -12.1723
upperneck -11.636 -18.689 24.6782
head 2.72966 -8.27007 7.79536
rclavicle -5.56597e-014 6.67916e-014
rhumerus 39.6976 -51.7133 -61.8367
rradius 25.3927
rwrist -71.2916
rhand -29.323 -24.1761
rfingers 7.12502
rthumb -2.66369 -54.1392
lclavicle -5.56597e-014 6.67916e-014
lhumerus -8.41287 -66.4781 18.4167
lradius 118.269
lwrist -0.625439
lhand -60.8163 319.033
lfingers 7.12502
lthumb -32.9286 -13.9517
rfemur -227.97 183.612 173.116
rtibia 21.9549
rfoot -70.0079 -387.98
rtoes 45.921
lfemur -51.9471 12.9152 -36.7507
ltibia 69.909
lfoot -25.3608 7.84039
ltoes -2.15063
2302
root -10.6793 13.9878 -7.11668 -163.546 11.0137 -183.377
lowerback 20.3292 1.17514 12.002
upperback -4.70685 8.42232 10.9374
thorax -16.8721 3.92054 2.459
lowerneck -14.7101 -16.3807 -12.0715
upperneck -11.0575 -18.7332 24.7035
head 2.86983 -8.30635 7.77273
rclavicle -7.55382e-014 4.45278e-014
rhumerus 38.2372 -50.6943 -62.6283
rradius 25.0337
rwrist -70.4206
rhand -30.2144 -25.3868
rfingers 7.12502
rthumb -3.5245 -55.3374
lclavicle -7.55382e-014 4.45278e-014
lhumerus -7.59011 -66.3372 17.6616
lradius 118.216
lwrist -0.734797
lhand -60.8088 319.005
lfingers 7.12502
lthumb -32.9215 -13.9785
rfemur -228.36 184.027 173.506
rtibia 22.1425
rfoot -69.8545 -388.52
rtoes 45.5407
lfemur -51.8692 12.6089 -36.5219
ltibia 69.4285
lfoot -26.1181 8.22601
ltoes -2.19601
2303
root -10.6883 13.9683 -7.08623 -163.637 11.267 -183.378
lowerback 20.4922 1.25124 11.6548
upperback -4.46364 8.38694 10.9458
thorax -16.7138 3.93935 2.65528
lowerneck -14.4912 -16.2502 -11.9722
upperneck -10.4489 -18.7443 24.7172
head 3.01073 -8.32424 7.75282
rclavicle 2.3059e-014 1.94014e-013
rhumerus 36.7863 -49.435 -63.3746
rradius 24.6738
rwrist -69.4745
rhand -31.1762 -26.7504
rfingers 7.12502
rthumb -4.45333 -56.6836
lclavicle 2.3059e-014 1.94014e-013
lhumerus -7.03118 -66.2089 17.1506
lradius 118.164
lwrist -0.807818
lhand -60.8144 318.968
lfingers 7.12502
lthumb -32.9268 -14.0162
rfemur -228.701 184.372 173.854
rtibia 22.2614
rfoot -69.4213 -389.24
rtoes 45.0001
lfemur -51.5543 12.398 -36.4531
ltibia 68.7283
lfoot -26.9807 8.85629
ltoes -1.99972
2304
root -10.7019 13.9542 -7.05346 -163.783 11.5919 -183.394
lowerback 20.7123 1.33732 11.2489
upperback -4.21096 8.35392 10.9501
thorax -16.584 3.96022 2.87417
lowerneck -14.2669 -16.1002 -11.8732
upperneck -9.81608 -18.7305 24.7241
head 3.15269 -8.32757 7.7356
rclavicle -1.59028e-015 3.49861e-014
rhumerus 35.2705 -47.8945 -63.9942
rradius 24.3375
rwrist -68.5452
rhand -32.1668 -28.2207
rfingers 7.12502
rthumb -5.40981 -58.1317
lclavicle -1.59028e-015 3.49861e-014
lhumerus -6.70965 -66.0989 16.8617
lradius 118.122
lwrist -0.828084
lhand -60.8202 318.971
lfingers 7.12502
lthumb -32.9323 -14.0142
rfemur -229.001 184.643 174.186
rtibia 22.3132
rfoot -68.6724 -390.225
rtoes 44.2584
lfemur -51.0808 12.2814 -36.4999
ltibia 67.9185
lfoot -27.8933 9.52487
ltoes -1.13809
2305
root -10.7198 13.9442 -7.01842 -163.97 11.9675 -183.397
lowerback 20.998 1.42334 10.8354
upperback -3.95613 8.32867 10.9497
thorax -16.4889 3.98103 3.08595
lowerneck -14.0426 -15.9356 -11.7704
upperneck -9.16869 -18.6957 24.734
head 3.29539 -8.31759 7.72282
rclavicle 7.95139e-015 -1.46306e-013
rhumerus 33.6447 -46.0217 -64.4239
rradius 24.0511
rwrist -67.718
rhand -33.1097 -29.8093
rfingers 7.12502
rthumb -6.32008 -59.695
lclavicle 7.95139e-015 -1.46306e-013
lhumerus -6.59274 -66.008 16.7656
lradius 118.092
lwrist -0.790171
lhand -60.8081 319.045
lfingers 7.12502
lthumb -32.9208 -13.9377
rfemur -229.276 184.852 174.534
rtibia 22.3215
rfoot -67.5985 -391.462
rtoes 43.2969
lfemur -50.5393 12.24 -36.6062
ltibia 67.1014
lfoot -28.7355 10.2668
ltoes -0.134784
2306
root -10.74 13.9375 -6.98139 -164.172 12.3871 -183.372
lowerback 21.3321 1.5122 10.4262
upperback -3.7007 8.31508 10.9438
thorax -16.4186 4.00349 3.28306
lowerneck -13.8447 -15.766 -11.6523
upperneck -8.50163 -18.6528 24.7478
head 3.4454 -8.29804 7.70929
rclavicle 4.13472e-014 2.22639e-013
rhumerus 31.9465 -43.8212 -64.7032
rradius 23.8302
rwrist -67.034
rhand -33.901 -31.4921
rfingers 7.12502
rthumb -7.08404 -61.3536
lclavicle 4.13472e-014 2.22639e-013
lhumerus -6.64376 -65.9292 16.8197
lradius 118.076
lwrist -0.705096
lhand -60.7728 319.186
lfingers 7.12502
lthumb -32.8873 -13.79
rfemur -229.572 185.003 174.921
rtibia 22.3413
rfoot -66.176 -392.97
rtoes 42.0315
lfemur -50.0297 12.2488 -36.7112
ltibia 66.3759
lfoot -29.4347 10.9814
ltoes 0.887349
2307
root -10.7613 13.9333 -6.94282 -164.365 12.8316 -183.304
lowerback 21.6948 1.60076 10.0456
upperback -3.44951 8.31401 10.9325
thorax -16.3644 4.02706 3.45357
lowerneck -13.6802 -15.6 -11.5184
upperneck -7.82352 -18.6115 24.7688
head 3.60346 -8.27317 7.69421
rclavicle 5.88403e-014 8.26944e-014
rhumerus 30.158 -41.2371 -64.7904
rradius 23.7143
rwrist -66.5923
rhand -34.593 -33.0217
rfingers 7.12502
rthumb -7.75198 -62.8596
lclavicle 5.88403e-014 8.26944e-014
lhumerus -6.8261 -65.8574 16.986
lradius 118.076
lwrist -0.596495
lhand -60.7168 319.38
lfingers 7.12502
lthumb -32.8339 -13.5846
rfemur -229.942 185.102 175.365
rtibia 22.4527
rfoot -64.4185 -394.692
rtoes 40.4359
lfemur -49.6422 12.3281 -36.777
ltibia 65.8129
lfoot -29.9554 11.5398
ltoes 1.8645
2308
root -10.7817 13.9302 -6.90362 -164.527 13.2892 -183.183
lowerback 22.0584 1.69245 9.70253
upperback -3.20275 8.32764 10.9148
thorax -16.3093 4.05322 3.59226
lowerneck -13.5691 -15.4419 -11.3426
upperneck -7.13863 -18.5782 24.777
head 3.76725 -8.2454 7.66564
rclavicle -2.06736e-014 1.55847e-013
rhumerus 28.2959 -38.2343 -64.6729
rradius 23.7398
rwrist -66.4679
rhand -35.2254 -34.3654
rfingers 7.12502
rthumb -8.36233 -64.1798
lclavicle -2.06736e-014 1.55847e-013
lhumerus -7.03374 -65.7791 17.1736
lradius 118.076
lwrist -0.480565
lhand -60.6555 319.598
lfingers 7.12502
lthumb -32.7757 -13.3546
rfemur -230.433 185.179 175.9
rtibia 22.7313
rfoot -62.3418 -396.441
rtoes 38.535
lfemur -49.4231 12.4413 -36.7668
ltibia 65.4485
lfoot -30.2802 11.9793
ltoes 2.57432
